HIERARCHY
ROOT Hips
{
	OFFSET 0.000000 0.000000 0.000000 
	CHANNELS 6 Xposition Yposition Zposition Zrotation Yrotation Xrotation
	JOINT LeftUpLeg
	{
		OFFSET 1.363060 -1.794630 0.839290 
		CHANNELS 3 Zrotation Yrotation Xrotation
		JOINT LeftLeg
		{
			OFFSET 2.448110 -6.726130 0.000000 
			CHANNELS 3 Zrotation Yrotation Xrotation
			JOINT LeftFoot
			{
				OFFSET 2.562200 -7.039590 0.000000 
				CHANNELS 3 Zrotation Yrotation Xrotation
				JOINT LeftToeBase
				{
					OFFSET 0.157640 -0.433110 2.322550 
					CHANNELS 3 Zrotation Yrotation Xrotation
					End Site
					{
						OFFSET 0.000000 0.000000 0.000000 
					}
				}
			}
		}
	}
	JOINT RightUpLeg
	{
		OFFSET -1.305520 -1.794630 0.839290 
		CHANNELS 3 Zrotation Yrotation Xrotation
		JOINT RightLeg
		{
			OFFSET -2.542530 -6.985550 0.000000 
			CHANNELS 3 Zrotation Yrotation Xrotation
			JOINT RightFoot
			{
				OFFSET -2.568260 -7.056230 0.000000 
				CHANNELS 3 Zrotation Yrotation Xrotation
				JOINT RightToeBase
				{
					OFFSET -0.164730 -0.452590 2.363150 
					CHANNELS 3 Zrotation Yrotation Xrotation
					End Site
					{
						OFFSET 0.000000 0.000000 0.000000 
					}
				}
			}
		}
	}
	JOINT Spine
	{
		OFFSET 0.028270 2.035590 -0.193380 
		CHANNELS 3 Zrotation Yrotation Xrotation
		JOINT Spine1
		{
			OFFSET 0.056720 2.048850 -0.042750 
			CHANNELS 3 Zrotation Yrotation Xrotation
			JOINT Neck1
			{
				OFFSET -0.054170 1.746240 0.172020 
				CHANNELS 3 Zrotation Yrotation Xrotation
				JOINT Head
				{
					OFFSET 0.104070 1.761360 -0.123970 
					CHANNELS 3 Zrotation Yrotation Xrotation
					End Site
					{
						OFFSET 0.000000 0.000000 0.000000 
					}
				}
			}
			JOINT LeftArm
			{
				OFFSET 3.362410 1.200890 -0.311210 
				CHANNELS 3 Zrotation Yrotation Xrotation
				JOINT LeftForeArm
				{
					OFFSET 4.983000 -0.000000 -0.000000 
					CHANNELS 3 Zrotation Yrotation Xrotation
					JOINT LeftHand
					{
						OFFSET 3.483560 -0.000000 -0.000000 
						CHANNELS 3 Zrotation Yrotation Xrotation
						JOINT LeftHandIndex1
						{
							OFFSET 0.715260 -0.000000 -0.000000 
							CHANNELS 3 Zrotation Yrotation Xrotation
							End Site
							{
								OFFSET 0.000000 0.000000 0.000000 
							}
						}
					}
				}
			}
			JOINT RightArm
			{
				OFFSET -3.136600 1.374050 -0.404650 
				CHANNELS 3 Zrotation Yrotation Xrotation
				JOINT RightForeArm
				{
					OFFSET -5.241900 -0.000000 -0.000000 
					CHANNELS 3 Zrotation Yrotation Xrotation
					JOINT RightHand
					{
						OFFSET -3.444170 -0.000000 -0.000000 
						CHANNELS 3 Zrotation Yrotation Xrotation
						JOINT RightHandIndex1
						{
							OFFSET -0.622530 -0.000000 -0.000000 
							CHANNELS 3 Zrotation Yrotation Xrotation
							End Site
							{
								OFFSET 0.000000 0.000000 0.000000 
							}
						}
					}
				}
			}
		}
	}
}
MOTION
Frames: 6
Frame Time: 0.041667
0.675218 16.356143 7.234812 -0.511493 -4.344350 68.966498 7.039612 -23.916952 -90.602110 -1.031518 13.985507 25.298114 -0.059620 13.976585 -7.376442 0.148400 2.482900 6.842100 -13.171506 24.223720 -95.552934 1.403253 -15.252136 26.602481 0.077625 -14.473350 -5.012501 -0.004900 -0.452600 1.243600 0.700326 3.102218 -2.692032 -4.573538 1.446594 -11.381356 0.387985 3.164772 2.580354 -7.515000 1.317600 5.223000 -70.445528 -65.915748 31.422463 23.843610 -22.227676 -3.845644 -1.216159 4.900226 -1.216510 -7.125000 0.000000 0.000000 54.289443 59.988438 -0.524646 -21.643757 23.623935 -2.910164 -0.206430 -3.372893 -4.187192 7.125000 0.000000 0.000000 
0.672861 16.358285 7.226458 -0.419987 -4.388698 68.201026 6.062574 -23.984110 -89.966281 -0.999843 14.131053 25.672559 -0.021181 13.332320 -7.245877 0.139300 2.405300 6.627200 -12.646123 24.344177 -95.006665 1.325340 -15.465865 27.162097 0.070717 -14.065268 -5.141942 -0.004500 -0.433800 1.192000 0.690310 2.937096 -2.721558 -4.661550 1.353939 -11.261490 0.459577 3.240576 2.548116 -7.453400 1.351500 5.240400 -72.282828 -63.594351 31.141262 23.045123 -22.609821 -3.697403 -1.117345 4.930559 -0.223977 -7.125000 0.000000 0.000000 57.469443 59.185740 0.678450 -21.069603 23.336138 -2.779781 -0.189252 -3.289124 -2.729396 7.125000 0.000000 0.000000 
0.670184 16.360962 7.219067 -0.327538 -4.423869 67.439604 5.137596 -24.048769 -89.317000 -0.966144 14.271763 26.036427 0.011422 12.728425 -7.152258 0.131900 2.340700 6.448300 -12.135776 24.464196 -94.443912 1.248002 -15.668511 27.695767 0.066113 -13.695205 -5.272195 -0.003900 -0.403300 1.108000 0.678886 2.784035 -2.748607 -4.734964 1.268590 -11.151719 0.589686 3.300533 2.563325 -7.338700 1.387500 5.288600 -73.841283 -61.171939 30.822169 22.382292 -22.927378 -3.559953 -1.022787 4.917054 0.992569 -7.125000 0.000000 0.000000 60.508508 58.162792 1.616287 -20.541971 23.189651 -2.675692 -0.118845 -3.237344 -1.718521 7.125000 0.000000 0.000000 
0.667292 16.364283 7.212962 -0.233606 -4.455917 66.677718 4.252098 -24.113878 -88.639402 -0.931765 14.406035 26.384755 0.038832 12.165161 -7.098036 0.126000 2.288500 6.303800 -11.639605 24.587040 -93.860429 1.171427 -15.860643 28.204065 0.063338 -13.357043 -5.402729 -0.003200 -0.367400 1.009500 0.665660 2.638612 -2.772453 -4.813085 1.190051 -11.047015 0.742888 3.353345 2.596108 -7.203000 1.423500 5.346500 -75.150382 -58.710130 30.465216 21.852242 -23.210223 -3.439532 -0.944205 4.872646 2.268624 -7.125000 0.000000 0.000000 63.390638 56.946990 2.344640 -20.076300 23.155032 -2.601308 -0.020160 -3.222685 -1.235782 7.125000 0.000000 0.000000 
0.663971 16.368139 7.207499 -0.143151 -4.474507 65.927819 3.419535 -24.172306 -87.953962 -0.898327 14.529646 26.707256 0.062210 11.642986 -7.058797 0.120400 2.237000 6.161200 -11.124096 24.701696 -93.263555 1.097933 -16.041634 28.684566 0.059719 -13.022656 -5.527599 -0.002600 -0.331000 0.909400 0.650891 2.494451 -2.793440 -4.904507 1.114953 -10.931338 0.920103 3.400532 2.640966 -7.043600 1.459200 5.412400 -76.222410 -56.253840 30.059502 21.440699 -23.472288 -3.337728 -0.891682 4.808729 3.431038 -7.125000 0.000000 0.000000 66.112915 55.575168 2.955846 -19.664438 23.196285 -2.558178 0.062447 -3.251673 -1.213422 7.125000 0.000000 0.000000 
0.660437 16.372744 7.203322 -0.056473 -4.486120 65.176884 2.675522 -24.244422 -87.243800 -0.865620 14.642248 27.001169 0.079142 11.204487 -7.058739 0.116500 2.200300 6.059600 -10.624610 24.825028 -92.639165 1.026886 -16.210040 29.133363 0.058189 -12.723254 -5.660494 -0.002200 -0.300400 0.825500 0.635576 2.343035 -2.810639 -5.033278 1.039113 -10.818249 1.040096 3.460229 2.661828 -6.938500 1.494600 5.460200 -77.106504 -53.817639 29.615667 21.129056 -23.732127 -3.260899 -0.860110 4.747257 4.344072 -7.125000 0.000000 0.000000 68.711282 54.087527 3.479571 -19.289277 23.279796 -2.537716 0.120618 -3.316680 -1.596511 7.125000 0.000000 0.000000 
